<svg width="101" height="20" viewBox="0 0 101 20" fill="none" xmlns="http://www.w3.org/2000/svg">
<path d="M5.03321 18.6714C3.46216 17.8071 2.2321 16.6164 1.33884 15.1012C0.447676 13.5861 0 11.8805 0 9.98446C0 8.08844 0.445584 6.38286 1.33884 4.86771C2.23001 3.35257 3.46635 2.1618 5.04577 1.2975C6.62518 0.433198 8.39078 0 10.3426 0C11.8655 0 13.2608 0.255314 14.5244 0.765942C15.7879 1.27657 16.8652 2.03414 17.7585 3.03866L15.9469 4.79447C14.4783 3.25212 12.6479 2.4799 10.4555 2.4799C9.00581 2.4799 7.69626 2.80637 6.52477 3.45512C5.35328 4.10596 4.4391 5.00374 3.77805 6.14638C3.11909 7.28902 2.78856 8.56768 2.78856 9.98028C2.78856 11.3929 3.11909 12.6715 3.77805 13.8142C4.43701 14.9568 5.35328 15.8546 6.52477 16.5054C7.69626 17.1563 9.00581 17.4807 10.4555 17.4807C12.6291 17.4807 14.4595 16.7001 15.9469 15.1389L17.7585 16.8947C16.8673 17.8992 15.7837 18.661 14.5118 19.1821C13.2378 19.7032 11.8404 19.9627 10.3175 19.9627C8.36359 19.9689 6.60217 19.5357 5.03321 18.6714Z" fill="#16292C"/>
<path d="M35.2157 1.85612C33.7325 0.619312 31.697 0.00195312 29.1135 0.00195312H24.1807V2.48394H29.0277C30.833 2.48394 32.2116 2.86901 33.1635 3.63913C34.1132 4.41136 34.5881 5.51632 34.5881 6.96241C34.5881 8.40849 34.1132 9.51555 33.1635 10.2857C32.2137 11.0558 30.833 11.4409 29.0277 11.4409H21.3293V19.9688H24.1807V13.9229H29.1135C31.697 13.9229 33.7325 13.3055 35.2157 12.0687C36.6968 10.8319 37.4394 9.13049 37.4394 6.96241C37.4394 4.79433 36.6968 3.09293 35.2157 1.85612Z" fill="#16292C"/>
<path d="M40.9292 17.4868V19.9667H54.6V17.4868H40.9292ZM54.6 0.00195312H40.9292V2.48394H54.6V0.00195312ZM54.6 8.61567H40.9292V11.0391H54.6V8.61567Z" fill="#16292C"/>
<path d="M91.9336 0.0220947H89.1095L80.0723 19.9889H83.0094L85.2059 14.9977L86.2037 12.7167L90.509 2.9331L94.8142 12.7167L95.812 14.9977L98.0065 19.9889H101L91.9336 0.0220947Z" fill="#16292C"/>
<path d="M77.2763 17.5072H58.0869V19.9871H77.2763V17.5072Z" fill="#16292C"/>
<path d="M75.593 0.0332031V2.51519H68.4615C68.3988 2.5131 68.3339 2.5131 68.2691 2.5131C68.2042 2.5131 68.1373 2.5131 68.0724 2.51519C64.4994 2.59053 62.715 4.7335 62.715 8.88968V20H59.895V8.77667C59.895 6.61069 60.3281 4.83395 61.192 3.44437C61.397 3.11162 61.6272 2.80399 61.8845 2.51519C61.9514 2.43776 62.0204 2.36452 62.0937 2.28918C63.5601 0.784497 65.6081 0.0332031 68.2377 0.0332031H75.593Z" fill="#16292C"/>
<path d="M75.593 8.59692H72.771V17.5099H75.593V8.59692Z" fill="#16292C"/>
</svg>
