<svg width="188" height="74" viewBox="0 0 188 74" fill="none" xmlns="http://www.w3.org/2000/svg">
<g clip-path="url(#clip0_494_3464)">
<rect width="188" height="74" rx="4" fill="#16292C"/>
<g clip-path="url(#clip1_494_3464)">
<mask id="mask0_494_3464" style="mask-type:luminance" maskUnits="userSpaceOnUse" x="19" y="-5" width="156" height="87">
<path d="M174.483 -5H19.4832V82H174.483V-5Z" fill="white"/>
</mask>
<g mask="url(#mask0_494_3464)">
<path d="M174.483 -5.02881H18.816V81.9181H174.483V-5.02881Z" fill="#16292C"/>
<g opacity="0.6">
<path d="M47.034 53.2214C46.8583 53.445 46.6293 53.6198 46.3424 53.7438C46.0555 53.8678 45.7353 53.9298 45.3795 53.9298C44.9703 53.9298 44.6078 53.8479 44.292 53.6818C43.9762 53.5158 43.7316 53.2856 43.5582 52.9867C43.3847 52.6879 43.298 52.3469 43.298 51.964C43.298 51.5788 43.3847 51.2379 43.5582 50.9412C43.7316 50.6424 43.9762 50.4121 44.292 50.2461C44.6078 50.0801 44.9703 49.9982 45.3795 49.9982C45.7353 49.9982 46.0555 50.0602 46.3424 50.1841C46.6293 50.3081 46.8605 50.483 47.034 50.7066C47.2097 50.9302 47.3142 51.1892 47.3475 51.4792H47.0518C47.0117 51.2334 46.9161 51.0187 46.7671 50.835C46.6181 50.6512 46.4224 50.5095 46.1823 50.4099C45.9421 50.3103 45.6708 50.2594 45.3683 50.2594C45.0125 50.2594 44.7012 50.3302 44.4343 50.4697C44.1675 50.6092 43.9607 50.8084 43.8139 51.0652C43.6671 51.322 43.5937 51.6208 43.5937 51.9618C43.5937 52.3027 43.6671 52.6015 43.8139 52.8583C43.9607 53.1151 44.1675 53.3143 44.4343 53.4538C44.7012 53.5933 45.0125 53.6641 45.3683 53.6641C45.6708 53.6641 45.9421 53.6132 46.1823 53.5136C46.4224 53.414 46.6159 53.2723 46.7671 53.0885C46.9161 52.9048 47.0117 52.6901 47.0518 52.4443H47.3475C47.3142 52.7388 47.2097 52.9956 47.034 53.2214Z" fill="white"/>
<path d="M52.111 50.0624V50.317H50.4075V53.87H50.1229V50.317H48.4194V50.0624H52.111Z" fill="white"/>
<path d="M56.2362 50.1952C56.4252 50.286 56.572 50.4099 56.6765 50.5715C56.781 50.7331 56.8344 50.9191 56.8344 51.1272C56.8344 51.3353 56.7832 51.5212 56.6765 51.6828C56.572 51.8444 56.4252 51.9706 56.2362 52.0592C56.0472 52.1499 55.8314 52.1942 55.5891 52.1942H53.9768V53.87H53.6921V50.0624H55.5891C55.8314 50.0624 56.0472 50.1067 56.2362 50.1952ZM55.5935 51.9396C55.7825 51.9396 55.9471 51.9064 56.0916 51.84C56.234 51.7736 56.3452 51.6784 56.4208 51.5567C56.4986 51.4349 56.5364 51.291 56.5364 51.1294C56.5364 50.9678 56.4986 50.8239 56.4208 50.7021C56.3429 50.5804 56.234 50.4852 56.0916 50.4188C55.9493 50.3524 55.7825 50.3192 55.5935 50.3192H53.9768V51.9441H55.5935V51.9396Z" fill="white"/>
<path d="M59.2694 53.6818C58.9492 53.5158 58.7023 53.2855 58.5244 52.9867C58.3487 52.69 58.2598 52.3491 58.2598 51.9661C58.2598 51.581 58.3487 51.2423 58.5244 50.9456C58.7023 50.649 58.9492 50.4165 59.2694 50.2505C59.5896 50.0845 59.9543 50.0026 60.3657 50.0026C60.7771 50.0026 61.1418 50.0845 61.4621 50.2505C61.7823 50.4165 62.0291 50.6468 62.207 50.9456C62.3849 51.2423 62.4717 51.5832 62.4717 51.9661C62.4717 52.3513 62.3827 52.69 62.207 52.9867C62.0314 53.2833 61.7823 53.5158 61.4621 53.6818C61.1418 53.8478 60.7771 53.9297 60.3657 53.9297C59.9565 53.9297 59.5896 53.8478 59.2694 53.6818ZM58.7801 52.8605C58.9291 53.1173 59.1404 53.3165 59.4117 53.456C59.6852 53.5955 60.0032 53.6663 60.3657 53.6663C60.7304 53.6663 61.0484 53.5955 61.3197 53.456C61.5933 53.3165 61.8023 53.1173 61.9513 52.8605C62.1003 52.6037 62.1737 52.3049 62.1737 51.9639C62.1737 51.623 62.1003 51.3242 61.9513 51.0674C61.8023 50.8106 61.591 50.6113 61.3197 50.4719C61.0462 50.3324 60.7282 50.2616 60.3657 50.2616C60.001 50.2616 59.683 50.3324 59.4117 50.4719C59.1382 50.6113 58.9291 50.8106 58.7801 51.0674C58.6311 51.3242 58.5578 51.623 58.5578 51.9639C58.5578 52.3049 58.6311 52.6037 58.7801 52.8605Z" fill="white"/>
<path d="M64.2531 50.0624H64.5377V53.5756L67.5154 50.0624H67.8868V53.87H67.6021V50.3568L64.6244 53.87H64.2531V50.0624Z" fill="white"/>
<path d="M73.1616 50.0624V50.317H71.4582V53.87H71.1735V50.317H69.4701V50.0624H73.1616Z" fill="white"/>
<path d="M74.6027 51.8378V52.0924H77.7205V51.8378H74.6027ZM74.6049 50.0624V50.317H77.7227V50.0624H74.6049ZM74.6027 53.6154V53.87H77.7138V53.6154H74.6027Z" fill="white"/>
<path d="M83.2533 50.0624V53.87H82.9686V50.317H80.389C80.4424 50.9612 80.4713 51.508 80.4713 51.9573C80.4713 52.4178 80.4335 52.7919 80.3601 53.0797C80.2867 53.3675 80.1711 53.58 80.0176 53.7173C79.8642 53.8545 79.664 53.9231 79.4194 53.9231C79.246 53.9231 79.0992 53.8899 78.9813 53.8257V53.5667C79.117 53.6243 79.2482 53.6531 79.3749 53.6531C79.564 53.6531 79.7174 53.5933 79.8397 53.4715C79.9598 53.3498 80.051 53.1616 80.1088 52.907C80.1666 52.6525 80.1978 52.3204 80.1978 51.9131C80.1978 51.415 80.1644 50.7996 80.0955 50.0646H83.2533V50.0624Z" fill="white"/>
<path d="M85.2614 50.0624H85.546V51.6762H87.1271C87.3762 51.6762 87.5964 51.7227 87.7898 51.8157C87.9833 51.9086 88.1345 52.0392 88.2413 52.2031C88.348 52.3691 88.4014 52.5595 88.4014 52.772C88.4014 52.9845 88.348 53.1749 88.2413 53.3409C88.1345 53.507 87.9833 53.6354 87.7898 53.7283C87.5964 53.8213 87.3762 53.8678 87.1271 53.8678H85.2614V50.0624ZM87.1338 53.6154C87.3295 53.6154 87.5007 53.58 87.6475 53.5114C87.7943 53.4428 87.9077 53.3431 87.9877 53.2147C88.0678 53.0863 88.1078 52.9402 88.1078 52.772C88.1078 52.6038 88.0678 52.4576 87.9877 52.3292C87.9077 52.2009 87.7943 52.1034 87.6475 52.0326C87.5007 51.964 87.3295 51.9286 87.1338 51.9286H85.5482V53.6132H87.1338V53.6154Z" fill="white"/>
<path d="M90.3517 50.0624V51.84H93.2782V50.0624H93.5629V53.87H93.2782V52.0924H90.3517V53.87H90.067V50.0624H90.3517Z" fill="white"/>
<path d="M99.3004 53.8678H98.9801L98.4709 52.8517H95.9847L95.4732 53.8678H95.153L97.0855 50.0602H97.3701L99.3004 53.8678ZM98.3419 52.5993L97.2278 50.3812L96.1114 52.5993H98.3419Z" fill="white"/>
<path d="M102.141 52.1942H101.905C101.662 52.1942 101.447 52.15 101.258 52.0592C101.069 51.9684 100.922 51.8445 100.817 51.6828C100.713 51.5212 100.66 51.3375 100.66 51.1272C100.66 50.9191 100.713 50.7332 100.817 50.5716C100.922 50.41 101.069 50.2838 101.258 50.1952C101.447 50.1045 101.662 50.0602 101.905 50.0602H103.873V53.8678H103.588V52.192H102.516L100.975 53.8678H100.597L102.141 52.1942ZM101.064 51.5545C101.142 51.6762 101.253 51.7714 101.398 51.8378C101.542 51.9042 101.711 51.9374 101.907 51.9374H103.591V50.3125H101.907C101.711 50.3125 101.542 50.3458 101.398 50.4122C101.253 50.4786 101.142 50.5738 101.064 50.6955C100.986 50.8173 100.949 50.9612 100.949 51.1228C100.949 51.291 100.986 51.4327 101.064 51.5545Z" fill="white"/>
<path d="M108.362 50.0624H108.647V53.4051L111.482 50.0624H111.818L110.43 51.705L111.878 53.87H111.542L110.233 51.9374L108.6 53.87H108.36V50.0624H108.362Z" fill="white"/>
<path d="M114.044 53.6818C113.724 53.5158 113.477 53.2855 113.299 52.9867C113.124 52.69 113.035 52.3491 113.035 51.9661C113.035 51.581 113.124 51.2423 113.299 50.9456C113.477 50.649 113.724 50.4165 114.044 50.2505C114.365 50.0845 114.729 50.0026 115.141 50.0026C115.552 50.0026 115.917 50.0845 116.237 50.2505C116.557 50.4165 116.804 50.6468 116.982 50.9456C117.16 51.2423 117.247 51.5832 117.247 51.9661C117.247 52.3513 117.158 52.69 116.982 52.9867C116.806 53.2833 116.557 53.5158 116.237 53.6818C115.917 53.8478 115.552 53.9297 115.141 53.9297C114.729 53.9297 114.362 53.8478 114.044 53.6818ZM113.553 52.8605C113.702 53.1173 113.913 53.3165 114.184 53.456C114.458 53.5955 114.776 53.6663 115.138 53.6663C115.503 53.6663 115.821 53.5955 116.092 53.456C116.366 53.3165 116.575 53.1173 116.724 52.8605C116.873 52.6037 116.946 52.3049 116.946 51.9639C116.946 51.623 116.873 51.3242 116.724 51.0674C116.575 50.8106 116.364 50.6113 116.092 50.4719C115.819 50.3324 115.501 50.2616 115.138 50.2616C114.774 50.2616 114.456 50.3324 114.184 50.4719C113.911 50.6113 113.702 50.8106 113.553 51.0674C113.404 51.3242 113.33 51.623 113.33 51.9639C113.33 52.3049 113.404 52.6037 113.553 52.8605Z" fill="white"/>
<path d="M123.718 53.8678H123.442V50.3834L121.519 53.8678H121.223L119.301 50.3834V53.8678H119.026V50.0602H119.444L121.374 53.5933L123.3 50.0602H123.718V53.8678Z" fill="white"/>
<path d="M129.204 53.8678H128.919V50.3148H126.013V53.8678H125.728V50.0602H129.206V53.8678H129.204Z" fill="white"/>
<path d="M134.941 53.8678H134.621L134.112 52.8517H131.626L131.114 53.8678H130.794L132.727 50.0602H133.011L134.941 53.8678ZM133.983 52.5993L132.869 50.3812L131.753 52.5993H133.983Z" fill="white"/>
<path d="M136.812 50.0624V51.84H139.738V50.0624H140.023V53.87H139.738V52.0924H136.812V53.87H136.527V50.0624H136.812Z" fill="white"/>
<path d="M142.033 50.0624H142.318V53.5756L145.296 50.0624H145.667V53.87H145.382V50.3568L142.405 53.87H142.033V50.0624Z" fill="white"/>
<path d="M148.934 52.1942H148.698C148.456 52.1942 148.24 52.15 148.051 52.0592C147.862 51.9684 147.715 51.8445 147.611 51.6828C147.506 51.5212 147.453 51.3375 147.453 51.1272C147.453 50.9191 147.506 50.7332 147.611 50.5716C147.715 50.41 147.862 50.2838 148.051 50.1952C148.24 50.1045 148.456 50.0602 148.698 50.0602H150.666V53.8678H150.381V52.192H149.31L147.768 53.8678H147.39L148.934 52.1942ZM147.855 51.5545C147.933 51.6762 148.044 51.7714 148.189 51.8378C148.333 51.9042 148.502 51.9374 148.698 51.9374H150.381V50.3125H148.698C148.502 50.3125 148.333 50.3458 148.189 50.4122C148.044 50.4786 147.933 50.5738 147.855 50.6955C147.777 50.8173 147.74 50.9612 147.74 51.1228C147.74 51.291 147.78 51.4327 147.855 51.5545Z" fill="white"/>
</g>
<path d="M48.6485 42.819C46.9784 41.9047 45.6708 40.6451 44.7212 39.0423C43.7739 37.4396 43.298 35.6354 43.298 33.6297C43.298 31.6241 43.7716 29.8199 44.7212 28.2172C45.6686 26.6144 46.9828 25.3548 48.6618 24.4405C50.3408 23.5262 52.2177 23.068 54.2925 23.068C55.9115 23.068 57.3947 23.3381 58.7379 23.8782C60.0811 24.4184 61.2264 25.2197 62.1759 26.2823L60.2501 28.1397C58.689 26.5081 56.7432 25.6913 54.4126 25.6913C52.8715 25.6913 51.4794 26.0366 50.2341 26.7229C48.9887 27.4114 48.0169 28.361 47.3142 29.5697C46.6137 30.7785 46.2623 32.131 46.2623 33.6253C46.2623 35.1196 46.6137 36.4722 47.3142 37.6809C48.0147 38.8896 48.9887 39.8393 50.2341 40.5278C51.4794 41.2162 52.8715 41.5594 54.4126 41.5594C56.7232 41.5594 58.669 40.7336 60.2501 39.0822L62.1759 40.9395C61.2286 42.0021 60.0767 42.8079 58.7246 43.3591C57.3703 43.9104 55.8848 44.1849 54.2658 44.1849C52.1888 44.1915 50.3163 43.7333 48.6485 42.819Z" fill="white"/>
<path d="M80.7337 25.0316C79.1571 23.7232 76.9933 23.0702 74.2469 23.0702H69.0031V25.6957H74.1557C76.0748 25.6957 77.5403 26.103 78.5522 26.9177C79.5618 27.7345 80.0666 28.9034 80.0666 30.4331C80.0666 31.9628 79.5618 33.1339 78.5522 33.9485C77.5426 34.7632 76.0748 35.1705 74.1557 35.1705H65.972V44.1915H69.0031V37.796H74.2469C76.9933 37.796 79.1571 37.1429 80.7337 35.8346C82.3082 34.5263 83.0977 32.7265 83.0977 30.4331C83.0977 28.1397 82.3082 26.3399 80.7337 25.0316Z" fill="white"/>
<path d="M86.807 41.566V44.1893H101.34V41.566H86.807ZM101.34 23.0702H86.807V25.6957H101.34V23.0702ZM101.34 32.1819H86.807V34.7455H101.34V32.1819Z" fill="white"/>
<path d="M141.028 23.0923H138.026L128.419 44.2136H131.541L133.876 38.9338L134.937 36.5208L139.514 26.1716L144.09 36.5208L145.151 38.9338L147.484 44.2136H150.666L141.028 23.0923Z" fill="white"/>
<path d="M120.585 33.5057C120.585 33.5544 120.587 33.6031 120.587 33.6518C120.587 33.7005 120.587 33.7492 120.585 33.7979V33.5057Z" fill="white"/>
<path d="M125.446 41.5881H105.047V44.2114H125.446V41.5881Z" fill="white"/>
<path d="M120.622 41.5904L120.616 41.586V44.2137H123.616V41.5793L123.613 41.5882L120.622 41.5904Z" fill="white"/>
<path d="M123.656 23.1034V25.7289H116.075C116.008 25.7267 115.939 25.7267 115.87 25.7267C115.801 25.7267 115.73 25.7267 115.661 25.7289C111.863 25.8086 109.966 28.0755 109.966 32.4719V44.2247H106.968V32.3524C106.968 30.0612 107.428 28.1817 108.347 26.7118C108.565 26.3598 108.809 26.0344 109.083 25.7289C109.154 25.647 109.228 25.5695 109.305 25.4898C110.864 23.8981 113.041 23.1034 115.837 23.1034H123.656Z" fill="white"/>
<path d="M123.656 32.162H120.656V41.5903H123.656V32.162Z" fill="white"/>
</g>
</g>
</g>
<defs>
<clipPath id="clip0_494_3464">
<rect width="188" height="74" rx="4" fill="white"/>
</clipPath>
<clipPath id="clip1_494_3464">
<rect x="16" y="-5" width="155" height="87" rx="4" fill="white"/>
</clipPath>
</defs>
</svg>
